<?xml version="1.0" encoding="utf-8"?>
<!-- Generator: Adobe Illustrator 17.1.0, SVG Export Plug-In . SVG Version: 6.00 Build 0)  -->
<!DOCTYPE svg PUBLIC "-//W3C//DTD SVG 1.1//EN" "http://www.w3.org/Graphics/SVG/1.1/DTD/svg11.dtd">
<svg version="1.1" id="Layer_1" xmlns="http://www.w3.org/2000/svg" xmlns:xlink="http://www.w3.org/1999/xlink" x="0px" y="0px"
	 viewBox="0 0 134 112.4" enable-background="new 0 0 134 112.4" xml:space="preserve">
<g>
	<g>
		<circle id="XMLID_23_" fill="#FCD404" cx="69.7" cy="57.8" r="51"/>
		<g id="XMLID_8_">
			<path id="XMLID_22_" fill="none" stroke="#FFFFFF" stroke-width="5.357" stroke-miterlimit="10" d="M86.2,81.9H52.1
				c-4.8,0-8.7-3.9-8.7-8.7V39c0-4.8,3.9-8.7,8.7-8.7h34.2c4.8,0,8.7,3.9,8.7,8.7v34.2C94.9,78,91.1,81.9,86.2,81.9z"/>
			<path id="XMLID_10_" fill="none" stroke="#FFFFFF" stroke-width="5.357" stroke-miterlimit="10" d="M69.2,45.4
				c5.9,0,10.7,4.8,10.7,10.7c0,5.9-4.8,10.7-10.7,10.7c-5.9,0-10.7-4.8-10.7-10.7C58.5,50.2,63.3,45.4,69.2,45.4L69.2,45.4z"/>
			<path id="XMLID_9_" fill="#FFFFFF" d="M84.5,36.5c2.1,0,3.8,1.7,3.8,3.8c0,2.1-1.7,3.8-3.8,3.8c-2.1,0-3.8-1.7-3.8-3.8
				C80.7,38.3,82.4,36.5,84.5,36.5L84.5,36.5z"/>
		</g>
	</g>
</g>
</svg>
