<?xml version="1.0" encoding="utf-8"?>
<!-- Generator: Adobe Illustrator 17.1.0, SVG Export Plug-In . SVG Version: 6.00 Build 0)  -->
<!DOCTYPE svg PUBLIC "-//W3C//DTD SVG 1.1//EN" "http://www.w3.org/Graphics/SVG/1.1/DTD/svg11.dtd">
<svg version="1.1" id="Layer_1" xmlns="http://www.w3.org/2000/svg" xmlns:xlink="http://www.w3.org/1999/xlink" x="0px" y="0px"
	 viewBox="0 0 137.3 113.1" enable-background="new 0 0 137.3 113.1" xml:space="preserve">
<g>
	<g id="XMLID_24_">
		<g>
			<circle id="XMLID_20_" fill="#FCD404" cx="70.7" cy="56.9" r="51"/>
			<path id="XMLID_19_" fill="#FFFFFF" d="M100.2,37.1c-2.2,1-3.9,1.4-6.4,1.7c2.5-1.5,4.5-3.9,5.4-6.8c-2.4,1.4-5,2.4-7.8,3
				C89.2,32.5,86,31,82.5,31c-6.8,0-12.3,5.5-12.3,12.3c0,1,0.1,1.9,0.3,2.8c-10.2-0.5-19.2-5.4-25.3-12.8c-1.1,1.8-1.7,3.9-1.7,6.2
				c0,4.2,2.2,8,5.5,10.2c-2-0.1-3.9-0.6-5.6-1.5c0,0.1,0,0.1,0,0.2c0,5.9,4.2,10.9,9.8,12c-1,0.3-2.1,0.4-3.2,0.4
				c-0.8,0-1.6-0.1-2.3-0.2c1.6,4.9,6.1,8.4,11.4,8.5c-4.2,3.3-9.5,5.2-15.2,5.2c-1,0-2-0.1-2.9-0.2c0,0,4.5,6.2,20.3,8.4
				c15.8,2.2,42.9-8.5,33.3-39.4C97.2,41.4,98.6,39.5,100.2,37.1z"/>
		</g>
	</g>
</g>
</svg>
